<?xml version="1.0" standalone="no"?><?xml-stylesheet type="text/css" href="https://wps.processon.com/themes/default/wps/mind/icons/icons.css" ?><!DOCTYPE svg PUBLIC "-//W3C//DTD SVG 1.1//EN" "http://www.w3.org/Graphics/SVG/1.1/DTD/svg11.dtd"><svg id="SvgjsSvg1006" width="752.001953125" height="531.884765625" xmlns="http://www.w3.org/2000/svg" version="1.1" xmlns:xlink="http://www.w3.org/1999/xlink" xmlns:svgjs="http://svgjs.com/svgjs"><defs id="SvgjsDefs1007"><pattern patternUnits="userSpaceOnUse" id="pattern_mark_0" width="300" height="300"><text x="150" y="100" fill="rgba(229,229,229,0.8)" font-size="18" transform="rotate(-45, 150, 150)" style="dominant-baseline: middle; text-anchor: middle;"></text></pattern><pattern patternUnits="userSpaceOnUse" id="pattern_mark_1" width="300" height="300"><text x="150" y="200" fill="rgba(229,229,229,0.8)" font-size="18" transform="rotate(-45, 150, 150)" style="dominant-baseline: middle; text-anchor: middle;"></text></pattern><marker id="SvgjsMarker1053" markerWidth="14" markerHeight="10" refX="10" refY="5" viewBox="0 0 14 10" orient="auto" markerUnits="userSpaceOnUse" stroke-dasharray="0,0"><path id="SvgjsPath1054" d="M0,0 L14,5 L0,10 L0,0" fill="#323232" stroke="#323232" stroke-width="1"></path></marker><marker id="SvgjsMarker1057" markerWidth="14" markerHeight="10" refX="10" refY="5" viewBox="0 0 14 10" orient="auto" markerUnits="userSpaceOnUse" stroke-dasharray="0,0"><path id="SvgjsPath1058" d="M0,0 L14,5 L0,10 L0,0" fill="#323232" stroke="#323232" stroke-width="1"></path></marker><marker id="SvgjsMarker1061" markerWidth="14" markerHeight="10" refX="10" refY="5" viewBox="0 0 14 10" orient="auto" markerUnits="userSpaceOnUse" stroke-dasharray="0,0"><path id="SvgjsPath1062" d="M0,0 L14,5 L0,10 L0,0" fill="#323232" stroke="#323232" stroke-width="1"></path></marker><marker id="SvgjsMarker1065" markerWidth="14" markerHeight="10" refX="10" refY="5" viewBox="0 0 14 10" orient="auto" markerUnits="userSpaceOnUse" stroke-dasharray="0,0"><path id="SvgjsPath1066" d="M0,0 L14,5 L0,10 L0,0" fill="#323232" stroke="#323232" stroke-width="1"></path></marker><marker id="SvgjsMarker1111" markerWidth="14" markerHeight="10" refX="10" refY="5" viewBox="0 0 14 10" orient="auto" markerUnits="userSpaceOnUse" stroke-dasharray="0,0"><path id="SvgjsPath1112" d="M0,0 L14,5 L0,10 L0,0" fill="#323232" stroke="#323232" stroke-width="1"></path></marker><marker id="SvgjsMarker1133" markerWidth="14" markerHeight="10" refX="10" refY="5" viewBox="0 0 14 10" orient="auto" markerUnits="userSpaceOnUse" stroke-dasharray="0,0"><path id="SvgjsPath1134" d="M0,0 L14,5 L0,10 L0,0" fill="#323232" stroke="#323232" stroke-width="1"></path></marker><marker id="SvgjsMarker1155" markerWidth="14" markerHeight="10" refX="4" refY="5" viewBox="0 0 14 10" orient="auto" markerUnits="userSpaceOnUse" stroke-dasharray="0,0"><path id="SvgjsPath1156" d="M14,0 L0,5 L14,10 L14,0" fill="#323232" stroke="#323232" stroke-width="1"></path></marker><marker id="SvgjsMarker1157" markerWidth="14" markerHeight="10" refX="10" refY="5" viewBox="0 0 14 10" orient="auto" markerUnits="userSpaceOnUse" stroke-dasharray="0,0"><path id="SvgjsPath1158" d="M0,0 L14,5 L0,10 L0,0" fill="#323232" stroke="#323232" stroke-width="1"></path></marker><marker id="SvgjsMarker1165" markerWidth="14" markerHeight="10" refX="10" refY="5" viewBox="0 0 14 10" orient="auto" markerUnits="userSpaceOnUse" stroke-dasharray="0,0"><path id="SvgjsPath1166" d="M0,0 L14,5 L0,10 L0,0" fill="#323232" stroke="#323232" stroke-width="1"></path></marker><marker id="SvgjsMarker1181" markerWidth="14" markerHeight="10" refX="10" refY="5" viewBox="0 0 14 10" orient="auto" markerUnits="userSpaceOnUse" stroke-dasharray="0,0"><path id="SvgjsPath1182" d="M0,0 L14,5 L0,10 L0,0" fill="#323232" stroke="#323232" stroke-width="1"></path></marker></defs><rect id="svgbackgroundid" width="752.001953125" height="531.884765625" fill="rgb(255,255,255)"></rect><rect id="SvgjsRect1009" width="752.001953125" height="531.884765625" fill="url(#pattern_mark_0)"></rect><rect id="SvgjsRect1010" width="752.001953125" height="531.884765625" fill="url(#pattern_mark_1)"></rect><g id="SvgjsG1011" transform="translate(488.2539062500001,25.008463541666607)"><path id="SvgjsPath1012" d="M 0 4Q 0 0 4 0L 234.4861111111111 0Q 238.4861111111111 0 238.4861111111111 4L 238.4861111111111 476.8888888888889Q 238.4861111111111 480.8888888888889 234.4861111111111 480.8888888888889L 4 480.8888888888889Q 0 480.8888888888889 0 476.8888888888889Z" stroke-dasharray="10,6" stroke="rgba(33,41,48,1)" stroke-width="2" fill-opacity="1" fill="#ffffff"></path><g id="SvgjsG1013"><text id="SvgjsText1014" font-family="微软雅黑" text-anchor="middle" font-size="13px" width="219px" fill="#323232" font-weight="400" align="middle" lineHeight="125%" anchor="middle" family="微软雅黑" size="13px" weight="400" font-style="" opacity="1" y="229.81944444444446" transform="rotate(0)"></text></g></g><g id="SvgjsG1015" transform="translate(290.00390625,201.59179687500003)"><path id="SvgjsPath1016" d="M 0 4Q 0 0 4 0L 143.125 0Q 147.125 0 147.125 4L 147.125 97.87499999999997Q 147.125 101.87499999999997 143.125 101.87499999999997L 4 101.87499999999997Q 0 101.87499999999997 0 97.87499999999997Z" stroke="rgba(33,41,48,1)" stroke-width="2" fill-opacity="1" fill="#ffffff"></path><g id="SvgjsG1017"><text id="SvgjsText1018" font-family="微软雅黑" text-anchor="middle" font-size="18px" width="128px" fill="#323232" font-weight="400" align="middle" lineHeight="125%" anchor="middle" family="微软雅黑" size="18px" weight="400" font-style="" opacity="1" y="24.187499999999986" transform="rotate(0)"><tspan id="SvgjsTspan1019" dy="22" x="74"><tspan id="SvgjsTspan1020" style="text-decoration:;font-weight: bold;">BL618</tspan></tspan><tspan id="SvgjsTspan1021" dy="22" x="74"><tspan id="SvgjsTspan1022" style="text-decoration:;">FreeRTOS</tspan></tspan></text></g></g><g id="SvgjsG1023" transform="translate(584.62890625,34.02929687499997)"><path id="SvgjsPath1024" d="M 0 4Q 0 0 4 0L 113.5 0Q 117.5 0 117.5 4L 117.5 68.875Q 117.5 72.875 113.5 72.875L 4 72.875Q 0 72.875 0 68.875Z" stroke="rgba(33,41,48,1)" stroke-width="2" fill-opacity="1" fill="#ffffff"></path><g id="SvgjsG1025"><text id="SvgjsText1026" font-family="微软雅黑" text-anchor="middle" font-size="13px" width="98px" fill="#323232" font-weight="400" align="middle" lineHeight="125%" anchor="middle" family="微软雅黑" size="13px" weight="400" font-style="" opacity="1" y="9.3125" transform="rotate(0)"><tspan id="SvgjsTspan1027" dy="16" x="59"><tspan id="SvgjsTspan1028" style="text-decoration:;">AFE4404</tspan></tspan><tspan id="SvgjsTspan1029" dy="16" x="59"><tspan id="SvgjsTspan1030" style="text-decoration:;">+</tspan></tspan><tspan id="SvgjsTspan1031" dy="16" x="59"><tspan id="SvgjsTspan1032" style="text-decoration:;">SFH7050/7060</tspan></tspan></text></g></g><g id="SvgjsG1033" transform="translate(584.62890625,154.24804687499997)"><path id="SvgjsPath1034" d="M 0 4Q 0 0 4 0L 113.5 0Q 117.5 0 117.5 4L 117.5 68.875Q 117.5 72.875 113.5 72.875L 4 72.875Q 0 72.875 0 68.875Z" stroke="rgba(33,41,48,1)" stroke-width="2" fill-opacity="1" fill="#ffffff"></path><g id="SvgjsG1035"><text id="SvgjsText1036" font-family="微软雅黑" text-anchor="middle" font-size="13px" width="98px" fill="#323232" font-weight="400" align="middle" lineHeight="125%" anchor="middle" family="微软雅黑" size="13px" weight="400" font-style="" opacity="1" y="25.8125" transform="rotate(0)"><tspan id="SvgjsTspan1037" dy="16" x="59"><tspan id="SvgjsTspan1038" style="text-decoration:;">AD5941</tspan></tspan></text></g></g><g id="SvgjsG1039" transform="translate(584.62890625,274.466796875)"><path id="SvgjsPath1040" d="M 0 4Q 0 0 4 0L 113.5 0Q 117.5 0 117.5 4L 117.5 68.875Q 117.5 72.875 113.5 72.875L 4 72.875Q 0 72.875 0 68.875Z" stroke="rgba(33,41,48,1)" stroke-width="2" fill-opacity="1" fill="#ffffff"></path><g id="SvgjsG1041"><text id="SvgjsText1042" font-family="微软雅黑" text-anchor="middle" font-size="13px" width="98px" fill="#323232" font-weight="400" align="middle" lineHeight="125%" anchor="middle" family="微软雅黑" size="13px" weight="400" font-style="" opacity="1" y="25.8125" transform="rotate(0)"><tspan id="SvgjsTspan1043" dy="16" x="59"><tspan id="SvgjsTspan1044" style="text-decoration:;">LIS2DH12</tspan></tspan></text></g></g><g id="SvgjsG1045" transform="translate(584.62890625,391.21679687500006)"><path id="SvgjsPath1046" d="M 0 4Q 0 0 4 0L 113.5 0Q 117.5 0 117.5 4L 117.5 68.875Q 117.5 72.875 113.5 72.875L 4 72.875Q 0 72.875 0 68.875Z" stroke="rgba(33,41,48,1)" stroke-width="2" fill-opacity="1" fill="#ffffff"></path><g id="SvgjsG1047"><text id="SvgjsText1048" font-family="微软雅黑" text-anchor="middle" font-size="13px" width="98px" fill="#323232" font-weight="400" align="middle" lineHeight="125%" anchor="middle" family="微软雅黑" size="13px" weight="400" font-style="" opacity="1" y="25.8125" transform="rotate(0)"><tspan id="SvgjsTspan1049" dy="16" x="59"><tspan id="SvgjsTspan1050" style="text-decoration:;">TMP117</tspan></tspan></text></g></g><g id="SvgjsG1051"><path id="SvgjsPath1052" d="M584.62890625 70.46679687499997L511.37890625 70.46679687499997L511.37890625 252.529296875L440.72890625 252.529296875" stroke="#323232" stroke-width="2" fill="none" marker-end="url(#SvgjsMarker1053)"></path></g><g id="SvgjsG1055"><path id="SvgjsPath1056" d="M583.62890625 190.68554687499997L510.87890625 190.68554687499997L510.87890625 252.529296875L440.72890625 252.529296875" stroke="#323232" stroke-width="2" fill="none" marker-end="url(#SvgjsMarker1057)"></path></g><g id="SvgjsG1059"><path id="SvgjsPath1060" d="M583.62890625 310.904296875L510.87890625 310.904296875L510.87890625 252.529296875L440.72890625 252.529296875" stroke="#323232" stroke-width="2" fill="none" marker-end="url(#SvgjsMarker1061)"></path></g><g id="SvgjsG1063"><path id="SvgjsPath1064" d="M583.62890625 427.65429687500006L510.87890625 427.65429687500006L510.87890625 252.529296875L440.72890625 252.529296875" stroke="#323232" stroke-width="2" fill="none" marker-end="url(#SvgjsMarker1065)"></path></g><g id="SvgjsG1067" transform="translate(484.62890625,43.466796874999964)"><path id="SvgjsPath1068" d="M 0 0L 100 0L 100 40L 0 40Z" stroke="none" fill="none"></path><g id="SvgjsG1069"><text id="SvgjsText1070" font-family="微软雅黑" text-anchor="middle" font-size="13px" width="100px" fill="#000000" font-weight="400" align="middle" lineHeight="125%" anchor="middle" family="微软雅黑" size="13px" weight="400" font-style="" opacity="1" y="9.375" transform="rotate(0)"><tspan id="SvgjsTspan1071" dy="16" x="50"><tspan id="SvgjsTspan1072" style="text-decoration:;">PPG</tspan></tspan></text></g></g><g id="SvgjsG1073" transform="translate(484.62890625,161.59179687500006)"><path id="SvgjsPath1074" d="M 0 0L 100 0L 100 40L 0 40Z" stroke="none" fill="none"></path><g id="SvgjsG1075"><text id="SvgjsText1076" font-family="微软雅黑" text-anchor="middle" font-size="13px" width="100px" fill="#000000" font-weight="400" align="middle" lineHeight="125%" anchor="middle" family="微软雅黑" size="13px" weight="400" font-style="" opacity="1" y="9.375" transform="rotate(0)"><tspan id="SvgjsTspan1077" dy="16" x="50"><tspan id="SvgjsTspan1078" style="text-decoration:;">GSR</tspan></tspan></text></g></g><g id="SvgjsG1079" transform="translate(498.37890625,279.71679687500017)"><path id="SvgjsPath1080" d="M 0 0L 100 0L 100 40L 0 40Z" stroke="none" fill="none"></path><g id="SvgjsG1081"><text id="SvgjsText1082" font-family="微软雅黑" text-anchor="middle" font-size="12px" width="100px" fill="#000000" font-weight="400" align="middle" lineHeight="125%" anchor="middle" family="微软雅黑" size="12px" weight="400" font-style="" opacity="1" y="10" transform="rotate(0)"><tspan id="SvgjsTspan1083" dy="15" x="50"><tspan id="SvgjsTspan1084" style="text-decoration:;">Acceleration</tspan></tspan></text></g></g><g id="SvgjsG1085" transform="translate(498.37890625,391.2167968749999)"><path id="SvgjsPath1086" d="M 0 0L 100 0L 100 40L 0 40Z" stroke="none" fill="none"></path><g id="SvgjsG1087"><text id="SvgjsText1088" font-family="微软雅黑" text-anchor="middle" font-size="12px" width="100px" fill="#000000" font-weight="400" align="middle" lineHeight="125%" anchor="middle" family="微软雅黑" size="12px" weight="400" font-style="" opacity="1" y="10" transform="rotate(0)"><tspan id="SvgjsTspan1089" dy="15" x="50"><tspan id="SvgjsTspan1090" style="text-decoration:;">Tempurature</tspan></tspan></text></g></g><g id="SvgjsG1091" transform="translate(341.12890625,43.466796874999964)"><path id="SvgjsPath1092" d="M 0 4Q 0 0 4 0L 92 0Q 96 0 96 4L 96 50Q 96 54 92 54L 4 54Q 0 54 0 50Z" stroke="rgba(33,41,48,1)" stroke-width="2" fill-opacity="1" fill="#ffffff"></path><g id="SvgjsG1093"><text id="SvgjsText1094" font-family="微软雅黑" text-anchor="middle" font-size="13px" width="76px" fill="#323232" font-weight="400" align="middle" lineHeight="125%" anchor="middle" family="微软雅黑" size="13px" weight="400" font-style="" opacity="1" y="-0.125" transform="rotate(0)"><tspan id="SvgjsTspan1095" dy="16" x="48"><tspan id="SvgjsTspan1096" style="text-decoration:;">OneNet</tspan></tspan><tspan id="SvgjsTspan1097" dy="16" x="48"><tspan id="SvgjsTspan1098" style="text-decoration:;">Weather</tspan></tspan><tspan id="SvgjsTspan1099" dy="16" x="48"><tspan id="SvgjsTspan1100" style="text-decoration:;">SNTP</tspan></tspan></text></g></g><g id="SvgjsG1101" transform="translate(295.28515625,397.31054687500006)"><path id="SvgjsPath1102" d="M 0 4Q 0 0 4 0L 132.5625 0Q 136.5625 0 136.5625 4L 136.5625 56.6875Q 136.5625 60.6875 132.5625 60.6875L 4 60.6875Q 0 60.6875 0 56.6875Z" stroke="rgba(33,41,48,1)" stroke-width="2" fill-opacity="1" fill="#ffffff"></path><g id="SvgjsG1103"><text id="SvgjsText1104" font-family="微软雅黑" text-anchor="middle" font-size="13px" width="117px" fill="#323232" font-weight="400" align="middle" lineHeight="125%" anchor="middle" family="微软雅黑" size="13px" weight="400" font-style="" opacity="1" y="11.21875" transform="rotate(0)"><tspan id="SvgjsTspan1105" dy="16" x="68.5"><tspan id="SvgjsTspan1106" style="text-decoration:;fill: rgb(50, 50, 50);">320x386</tspan></tspan><tspan id="SvgjsTspan1107" dy="16" x="68.5"><tspan id="SvgjsTspan1108" style="text-decoration:;">LCD Touch Screen</tspan></tspan></text></g></g><g id="SvgjsG1109"><path id="SvgjsPath1110" d="M363.56640625 304.466796875L363.56640625 350.388671875L363.5664062499999 350.388671875L363.5664062499999 393.71054687500003" stroke="#323232" stroke-width="2" fill="none" marker-end="url(#SvgjsMarker1111)"></path><rect id="SvgjsRect1113" width="31" height="16" x="348.06640624999994" y="339.6902655359687" fill="#ffffff"></rect><text id="SvgjsText1114" font-family="微软雅黑" text-anchor="middle" font-size="13px" width="31px" fill="#323232" font-weight="400" align="top" lineHeight="16px" anchor="middle" family="微软雅黑" size="13px" weight="400" font-style="" opacity="1" y="337.0652655359687" transform="rotate(0)"><tspan id="SvgjsTspan1115" dy="16" x="363.56640624999994"><tspan id="SvgjsTspan1116" style="text-decoration:;">LVGL</tspan></tspan></text></g><g id="SvgjsG1117" transform="translate(25.00390624999997,113.84179687499997)"><path id="SvgjsPath1118" d="M 0 4Q 0 0 4 0L 127.875 0Q 131.875 0 131.875 4L 131.875 115.24999999999997Q 131.875 119.24999999999997 127.875 119.24999999999997L 4 119.24999999999997Q 0 119.24999999999997 0 115.24999999999997Z" stroke="rgba(33,41,48,1)" stroke-width="2" fill-opacity="1" fill="#ffffff"></path><g id="SvgjsG1119"><text id="SvgjsText1120" font-family="微软雅黑" text-anchor="middle" font-size="13px" width="112px" fill="#323232" font-weight="400" align="middle" lineHeight="125%" anchor="middle" family="微软雅黑" size="13px" weight="400" font-style="" opacity="1" y="16.499999999999986" transform="rotate(0)"><tspan id="SvgjsTspan1121" dy="16" x="66"><tspan id="SvgjsTspan1122" style="text-decoration:;font-size: inherit;">Stress </tspan></tspan><tspan id="SvgjsTspan1123" dy="16" x="66"><tspan id="SvgjsTspan1124" style="text-decoration:;font-size: inherit;">Classification: </tspan></tspan><tspan id="SvgjsTspan1125" dy="16" x="66"><tspan id="SvgjsTspan1126" style="text-decoration:;">Amusement</tspan></tspan><tspan id="SvgjsTspan1127" dy="16" x="66"><tspan id="SvgjsTspan1128" style="text-decoration:;">Neutral</tspan></tspan><tspan id="SvgjsTspan1129" dy="16" x="66"><tspan id="SvgjsTspan1130" style="text-decoration:;">Stress</tspan></tspan></text></g></g><g id="SvgjsG1131"><path id="SvgjsPath1132" d="M289.00390625 252.529296875L223.44140625 252.529296875L223.44140625 173.46679687499977L160.47890625 173.46679687499977" stroke="#323232" stroke-width="2" fill="none" marker-end="url(#SvgjsMarker1133)"></path><rect id="SvgjsRect1135" width="56" height="16" x="191.62483731177397" y="165.46679687499977" fill="#ffffff"></rect><text id="SvgjsText1136" font-family="微软雅黑" text-anchor="middle" font-size="13px" width="56px" fill="#323232" font-weight="400" align="top" lineHeight="16px" anchor="middle" family="微软雅黑" size="13px" weight="400" font-style="" opacity="1" y="162.84179687499977" transform="rotate(0)"><tspan id="SvgjsTspan1137" dy="16" x="219.62483731177397"><tspan id="SvgjsTspan1138" style="text-decoration:;">TinyMaix</tspan></tspan></text></g><g id="SvgjsG1139" transform="translate(625.6705729166665,466.88693576388937)"><path id="SvgjsPath1140" d="M 0 0L 100 0L 100 40L 0 40Z" stroke="none" fill="none"></path><g id="SvgjsG1141"><text id="SvgjsText1142" font-family="微软雅黑" text-anchor="middle" font-size="16px" width="100px" fill="#323232" font-weight="400" align="middle" lineHeight="125%" anchor="middle" family="微软雅黑" size="16px" weight="400" font-style="" opacity="1" y="6" transform="rotate(0)"><tspan id="SvgjsTspan1143" dy="20" x="50"><tspan id="SvgjsTspan1144" style="text-decoration:;">Sensors</tspan></tspan></text></g></g><g id="SvgjsG1145" transform="translate(194.00390625000003,43.46679687499997)"><path id="SvgjsPath1146" d="M 0 4Q 0 0 4 0L 92 0Q 96 0 96 4L 96 50Q 96 54 92 54L 4 54Q 0 54 0 50Z" stroke="rgba(33,41,48,1)" stroke-width="2" fill-opacity="1" fill="#ffffff"></path><g id="SvgjsG1147"><text id="SvgjsText1148" font-family="微软雅黑" text-anchor="middle" font-size="13px" width="76px" fill="#323232" font-weight="400" align="middle" lineHeight="125%" anchor="middle" family="微软雅黑" size="13px" weight="400" font-style="" opacity="1" y="7.875" transform="rotate(0)"><tspan id="SvgjsTspan1149" dy="16" x="48"><tspan id="SvgjsTspan1150" style="text-decoration:;">Android </tspan></tspan><tspan id="SvgjsTspan1151" dy="16" x="48"><tspan id="SvgjsTspan1152" style="text-decoration:;">APP</tspan></tspan></text></g></g><g id="SvgjsG1153"><path id="SvgjsPath1154" d="M363.56640625 197.99179687500003L363.56640625 149.529296875L389.12890625 149.529296875L389.12890625 101.06679687499997" stroke="#323232" stroke-width="2" fill="none" marker-start="url(#SvgjsMarker1155)" marker-end="url(#SvgjsMarker1157)"></path><rect id="SvgjsRect1159" width="67" height="16" x="355.62890625" y="117.5881094791474" fill="#ffffff"></rect><text id="SvgjsText1160" font-family="微软雅黑" text-anchor="middle" font-size="13px" width="67px" fill="#323232" font-weight="400" align="top" lineHeight="16px" anchor="middle" family="微软雅黑" size="13px" weight="400" font-style="" opacity="1" y="114.9631094791474" transform="rotate(0)"><tspan id="SvgjsTspan1161" dy="16" x="389.12890625"><tspan id="SvgjsTspan1162" style="text-decoration:;">WIFI/HTTP</tspan></tspan></text></g><g id="SvgjsG1163"><path id="SvgjsPath1164" d="M363.56640625 200.59179687500003L363.56640625 149.529296875L242.00390625 149.529296875L242.00390625 101.06679687499995" stroke="#323232" stroke-width="2" fill="none" marker-end="url(#SvgjsMarker1165)"></path><rect id="SvgjsRect1167" width="22" height="16" x="231.00390625" y="120.6596653814934" fill="#ffffff"></rect><text id="SvgjsText1168" font-family="微软雅黑" text-anchor="middle" font-size="13px" width="22px" fill="#323232" font-weight="400" align="top" lineHeight="16px" anchor="middle" family="微软雅黑" size="13px" weight="400" font-style="" opacity="1" y="118.0346653814934" transform="rotate(0)"><tspan id="SvgjsTspan1169" dy="16" x="242.00390625"><tspan id="SvgjsTspan1170" style="text-decoration:;">BLE</tspan></tspan></text></g><g id="SvgjsG1171" transform="translate(25.00390624999997,274.466796875)"><path id="SvgjsPath1172" d="M 0 4Q 0 0 4 0L 127.875 0Q 131.875 0 131.875 4L 131.875 112.74999999999989Q 131.875 116.74999999999989 127.875 116.74999999999989L 4 116.74999999999989Q 0 116.74999999999989 0 112.74999999999989Z" stroke="rgba(33,41,48,1)" stroke-width="2" fill-opacity="1" fill="#ffffff"></path><g id="SvgjsG1173"><text id="SvgjsText1174" font-family="微软雅黑" text-anchor="middle" font-size="13px" width="112px" fill="#323232" font-weight="400" align="middle" lineHeight="125%" anchor="middle" family="微软雅黑" size="13px" weight="400" font-style="" opacity="1" y="39.24999999999994" transform="rotate(0)"><tspan id="SvgjsTspan1175" dy="16" x="66"><tspan id="SvgjsTspan1176" style="text-decoration:;">Heart Rate</tspan></tspan><tspan id="SvgjsTspan1177" dy="16" x="66"><tspan id="SvgjsTspan1178" style="text-decoration:;">Pedometer</tspan></tspan></text></g></g><g id="SvgjsG1179"><path id="SvgjsPath1180" d="M289.00390625 252.529296875L223.44140625 252.529296875L223.44140625 332.84179687499994L160.47890624999997 332.84179687499994" stroke="#323232" stroke-width="2" fill="none" marker-end="url(#SvgjsMarker1181)"></path></g><g id="normal_brand" transform="translate(251.0009765625,303.9423828125)"><text id="SvgjsText1184" font-family="Helvetica, Arial, sans-serif" style="transform:rotate(-30deg);opacity: 0.06; color:#000; font-family: Microsoft Yahei;"><tspan id="SvgjsTspan1185" font-size="48" dy="0" x="0"></tspan></text></g></svg>